<?xml version="1.0" encoding="UTF-8"?>
<svg width="402px" height="231px" viewBox="0 0 402 231" version="1.1" xmlns="http://www.w3.org/2000/svg" xmlns:xlink="http://www.w3.org/1999/xlink">
    <!-- Generator: Sketch 41.1 (35376) - http://www.bohemiancoding.com/sketch -->
    <title>panopticon</title>
    <desc>Created with Sketch.</desc>
    <defs></defs>
    <g id="Page-1" stroke="none" stroke-width="1" fill="none" fill-rule="evenodd">
        <path d="M315.374579,72.5 C294.701161,115.397914 250.807549,145 200,145 C149.192451,145 105.298839,115.397914 84.6254214,72.5 C105.298839,29.6020855 149.192451,0 200,0 C250.807549,0 294.701161,29.6020855 315.374579,72.5 L315.374579,72.5 Z M200.310547,120.888672 C163.518873,120.888672 127.445992,103.40678 112.475586,72.3427734 C127.445992,41.2787664 163.820631,23.7060547 200.612305,23.7060547 C237.403978,23.7060547 274.754204,41.2257879 289.724609,72.2897949 C274.754204,103.421429 237.10222,120.888672 200.310547,120.888672 Z" id="Combined-Shape" fill="#268EA9"></path>
        <circle id="Oval" stroke="#268EA9" stroke-width="21" cx="200.5" cy="72.5" r="52.5"></circle>
        <path d="M14.40625,199.5625 L14.40625,215 L3.4375,215 L3.4375,169.5 L21.59375,169.5 C25.0729341,169.5 28.1510283,170.140619 30.828125,171.421875 C33.5052217,172.703131 35.5781177,174.52603 37.046875,176.890625 C38.5156323,179.25522 39.25,181.937485 39.25,184.9375 C39.25,189.375022 37.6614742,192.921862 34.484375,195.578125 C31.3072758,198.234388 26.9479444,199.5625 21.40625,199.5625 L14.40625,199.5625 Z M14.40625,191.09375 L21.59375,191.09375 C23.7187606,191.09375 25.3385361,190.562505 26.453125,189.5 C27.5677139,188.437495 28.125,186.93751 28.125,185 C28.125,182.874989 27.5520891,181.17709 26.40625,179.90625 C25.2604109,178.63541 23.6979266,177.989583 21.71875,177.96875 L14.40625,177.96875 L14.40625,191.09375 Z M65.375,206.5 L50.34375,206.5 L47.71875,215 L36,215 L52.6875,169.5 L63,169.5 L79.8125,215 L68.03125,215 L65.375,206.5 Z M52.96875,198.03125 L62.75,198.03125 L57.84375,182.25 L52.96875,198.03125 Z M121.125,215 L110.21875,215 L94.09375,186.6875 L94.09375,215 L83.125,215 L83.125,169.5 L94.09375,169.5 L110.1875,197.8125 L110.1875,169.5 L121.125,169.5 L121.125,215 Z M166.59375,193.1875 C166.59375,197.625022 165.770842,201.552066 164.125,204.96875 C162.479158,208.385434 160.14064,211.015616 157.109375,212.859375 C154.07811,214.703134 150.625019,215.625 146.75,215.625 C142.874981,215.625 139.437515,214.734384 136.4375,212.953125 C133.437485,211.171866 131.098967,208.625017 129.421875,205.3125 C127.744783,201.999983 126.864584,198.197938 126.78125,193.90625 L126.78125,191.34375 C126.78125,186.885394 127.59895,182.953142 129.234375,179.546875 C130.8698,176.140608 133.213526,173.510426 136.265625,171.65625 C139.317724,169.802074 142.791647,168.875 146.6875,168.875 C150.541686,168.875 153.979152,169.791657 157,171.625 C160.020848,173.458343 162.369783,176.067691 164.046875,179.453125 C165.723967,182.838559 166.572917,186.718728 166.59375,191.09375 L166.59375,193.1875 Z M155.4375,191.28125 C155.4375,186.760394 154.682299,183.328137 153.171875,180.984375 C151.661451,178.640613 149.500014,177.46875 146.6875,177.46875 C141.187473,177.46875 138.281252,181.593709 137.96875,189.84375 L137.9375,193.1875 C137.9375,197.645856 138.677076,201.072905 140.15625,203.46875 C141.635424,205.864595 143.833319,207.0625 146.75,207.0625 C149.520847,207.0625 151.656242,205.885428 153.15625,203.53125 C154.656258,201.177072 155.416667,197.791689 155.4375,193.375 L155.4375,191.28125 Z M183.21875,199.5625 L183.21875,215 L172.25,215 L172.25,169.5 L190.40625,169.5 C193.885434,169.5 196.963528,170.140619 199.640625,171.421875 C202.317722,172.703131 204.390618,174.52603 205.859375,176.890625 C207.328132,179.25522 208.0625,181.937485 208.0625,184.9375 C208.0625,189.375022 206.473974,192.921862 203.296875,195.578125 C200.119776,198.234388 195.760444,199.5625 190.21875,199.5625 L183.21875,199.5625 Z M183.21875,191.09375 L190.40625,191.09375 C192.531261,191.09375 194.151036,190.562505 195.265625,189.5 C196.380214,188.437495 196.9375,186.93751 196.9375,185 C196.9375,182.874989 196.364589,181.17709 195.21875,179.90625 C194.072911,178.63541 192.510427,177.989583 190.53125,177.96875 L183.21875,177.96875 L183.21875,191.09375 Z M249.625,177.96875 L235.96875,177.96875 L235.96875,215 L225,215 L225,177.96875 L211.59375,177.96875 L211.59375,169.5 L249.625,169.5 L249.625,177.96875 Z M265.9375,215 L255,215 L255,169.5 L265.9375,169.5 L265.9375,215 Z M310.375,199.59375 C310.229166,202.760432 309.375008,205.55728 307.8125,207.984375 C306.249992,210.41147 304.057306,212.29166 301.234375,213.625 C298.411444,214.95834 295.187518,215.625 291.5625,215.625 C285.583303,215.625 280.875017,213.677103 277.4375,209.78125 C273.999983,205.885397 272.28125,200.385452 272.28125,193.28125 L272.28125,191.03125 C272.28125,186.572894 273.057284,182.671892 274.609375,179.328125 C276.161466,175.984358 278.395819,173.401051 281.3125,171.578125 C284.229181,169.755199 287.604148,168.84375 291.4375,168.84375 C296.958361,168.84375 301.395817,170.29686 304.75,173.203125 C308.104183,176.10939 310.010414,180.114558 310.46875,185.21875 L299.53125,185.21875 C299.447916,182.447903 298.750007,180.458339 297.4375,179.25 C296.124993,178.041661 294.125013,177.4375 291.4375,177.4375 C288.70832,177.4375 286.70834,178.458323 285.4375,180.5 C284.16666,182.541677 283.5,185.802061 283.4375,190.28125 L283.4375,193.5 C283.4375,198.354191 284.046869,201.822906 285.265625,203.90625 C286.484381,205.989594 288.583318,207.03125 291.5625,207.03125 C294.083346,207.03125 296.01041,206.437506 297.34375,205.25 C298.67709,204.062494 299.385416,202.177096 299.46875,199.59375 L310.375,199.59375 Z M354.09375,193.1875 C354.09375,197.625022 353.270842,201.552066 351.625,204.96875 C349.979158,208.385434 347.64064,211.015616 344.609375,212.859375 C341.57811,214.703134 338.125019,215.625 334.25,215.625 C330.374981,215.625 326.937515,214.734384 323.9375,212.953125 C320.937485,211.171866 318.598967,208.625017 316.921875,205.3125 C315.244783,201.999983 314.364584,198.197938 314.28125,193.90625 L314.28125,191.34375 C314.28125,186.885394 315.09895,182.953142 316.734375,179.546875 C318.3698,176.140608 320.713526,173.510426 323.765625,171.65625 C326.817724,169.802074 330.291647,168.875 334.1875,168.875 C338.041686,168.875 341.479152,169.791657 344.5,171.625 C347.520848,173.458343 349.869783,176.067691 351.546875,179.453125 C353.223967,182.838559 354.072917,186.718728 354.09375,191.09375 L354.09375,193.1875 Z M342.9375,191.28125 C342.9375,186.760394 342.182299,183.328137 340.671875,180.984375 C339.161451,178.640613 337.000014,177.46875 334.1875,177.46875 C328.687473,177.46875 325.781252,181.593709 325.46875,189.84375 L325.4375,193.1875 C325.4375,197.645856 326.177076,201.072905 327.65625,203.46875 C329.135424,205.864595 331.333319,207.0625 334.25,207.0625 C337.020847,207.0625 339.156242,205.885428 340.65625,203.53125 C342.156258,201.177072 342.916667,197.791689 342.9375,193.375 L342.9375,191.28125 Z M397.75,215 L386.84375,215 L370.71875,186.6875 L370.71875,215 L359.75,215 L359.75,169.5 L370.71875,169.5 L386.8125,197.8125 L386.8125,169.5 L397.75,169.5 L397.75,215 Z" id="PANOPTICON" fill="#268EA9"></path>
        <circle id="Oval-2" fill="#268EA9" cx="201" cy="73" r="13"></circle>
    </g>
</svg>